<?xml version="1.0" standalone="no"?><!DOCTYPE svg PUBLIC "-//W3C//DTD SVG 1.1//EN" "http://www.w3.org/Graphics/SVG/1.1/DTD/svg11.dtd"><svg t="1592645296851" class="icon" viewBox="0 0 1024 1024" version="1.1" xmlns="http://www.w3.org/2000/svg" p-id="12579" width="48" height="48" xmlns:xlink="http://www.w3.org/1999/xlink"><defs><style type="text/css"></style></defs><path d="M0 102.4v408.516402C0 794.277249 229.722751 1024 513.083598 1024h408.516402c56.52769 0 102.4-45.87231 102.4-102.4V102.4C1024 45.87231 978.12769 0 921.6 0H102.4C45.87231 0 0 45.87231 0 102.4z m951.579541 787.775661c0 33.952734-27.451146 61.40388-61.40388 61.40388H513.083598c-59.597884 0-117.209171-11.558377-171.569665-34.675132-52.554497-22.213757-99.691005-53.999295-140.145326-94.453615s-72.239859-87.590829-94.453616-140.145327c-22.936155-54.360494-34.675132-111.971781-34.675132-171.569665V133.643739c0-33.952734 27.451146-61.40388 61.40388-61.40388h756.531922c33.952734 0 61.40388 27.451146 61.40388 61.40388v756.531922z" fill="#409EFF" p-id="12580"></path><path d="M629.57037 341.875132H394.24903c-19.865961 0-36.119929-16.253968-36.119929-36.119929s16.253968-36.119929 36.119929-36.11993h235.50194c19.865961 0 36.119929 16.253968 36.119929 36.11993s-16.253968 36.119929-36.300529 36.119929z" fill="#409EFF" p-id="12581"></path></svg>